<?xml version="1.0" standalone="no"?>
<!DOCTYPE svg PUBLIC "-//W3C//DTD SVG 1.1//EN" "http://www.w3.org/Graphics/SVG/1.1/DTD/svg11.dtd" >
<svg xmlns="http://www.w3.org/2000/svg">
<defs>
<font id="icomoon" horiz-adv-x="1024">
<font-face units-per-em="1024" ascent="960" descent="-64" />
<missing-glyph horiz-adv-x="1024" />
<glyph unicode="&#x20;" horiz-adv-x="512" d="" />
<glyph unicode="&#xe900;" glyph-name="nguon-tai-san" d="M983.040 960h-942.080c-22.622 0-40.96-18.338-40.96-40.96v0-942.080c0-22.622 18.338-40.96 40.96-40.96v0h942.080c22.622 0 40.96 18.338 40.96 40.96v0 942.080c0 22.622-18.338 40.96-40.96 40.96v0zM487.936 114.278c0-10.067-8.161-18.227-18.227-18.227v0h-98.918c-10.067 0-18.227 8.161-18.227 18.227v0 98.918c0 10.067 8.161 18.227 18.227 18.227v0h98.918c0.031 0 0.067 0 0.103 0 10.010 0 18.125-8.115 18.125-18.125 0-0.036 0-0.072 0-0.108v0.006zM444.314 292.659v98.918c0 10.067 8.161 18.227 18.227 18.227v0h98.918c10.067 0 18.227-8.161 18.227-18.227v0-98.918c0.005-0.153 0.007-0.332 0.007-0.512 0-10.067-8.161-18.227-18.227-18.227-0.003 0-0.005 0-0.008 0h-98.918c-0.002 0-0.005 0-0.007 0-10.067 0-18.227 8.161-18.227 18.227 0 0.18 0.003 0.359 0.008 0.538l-0.001-0.026zM671.437 114.278c0-10.067-8.161-18.227-18.227-18.227v0h-98.918c-10.067 0-18.227 8.161-18.227 18.227v0 98.918c0 0.031 0 0.067 0 0.103 0 10.010 8.115 18.125 18.125 18.125 0.036 0 0.072 0 0.108 0h98.912c10.067 0 18.227-8.161 18.227-18.227v0zM870.4 120.32c-0.058-13.246-10.81-23.962-24.064-23.962 0 0 0 0 0 0h-102.4c-0.122-0.002-0.266-0.003-0.41-0.003-13.255 0-24.008 10.718-24.064 23.96v387.282h-414.925v-387.277c-0.058-13.246-10.81-23.962-24.064-23.962 0 0 0 0 0 0h-102.4c-0.122-0.002-0.266-0.003-0.41-0.003-13.255 0-24.008 10.718-24.064 23.96v437.048c-0.001 0.092-0.002 0.201-0.002 0.309 0 8.391 4.276 15.783 10.768 20.115l0.088 0.055 334.438 218.317c3.691 2.458 8.228 3.923 13.107 3.923s9.416-1.464 13.195-3.978l-0.088 0.055 334.438-218.726c6.578-4.343 10.858-11.702 10.858-20.061 0-0.147-0.001-0.294-0.004-0.441v0.022z" />
<glyph unicode="&#xe901;" glyph-name="nha-cung-cap" d="M983.040 960h-942.080c-22.622 0-40.96-18.338-40.96-40.96v0-942.080c0-22.622 18.338-40.96 40.96-40.96v0h942.080c22.622 0 40.96 18.338 40.96 40.96v0 942.080c0 22.622-18.338 40.96-40.96 40.96v0zM417.792 448c-0.176-12.097-1.959-23.706-5.145-34.72l0.23 0.928 222.003-113.459c23.995 29.727 60.432 48.583 101.272 48.583 71.71 0 129.843-58.133 129.843-129.843s-58.133-129.843-129.843-129.843c-71.71 0-129.843 58.133-129.843 129.843 0 0.236 0.001 0.472 0.002 0.708v-0.036c0.191 13.19 2.349 25.808 6.193 37.667l-0.254-0.905-220.774 112.64c-24.076-32.151-62.075-52.737-104.882-52.737-72.163 0-130.662 58.5-130.662 130.662s58.5 130.662 130.662 130.662c41.446 0 78.385-19.297 102.322-49.396l0.205-0.267 222.003 113.459c-2.986 10.107-4.805 21.746-5.016 33.776l-0.002 0.118c-0.003 0.357-0.005 0.779-0.005 1.201 0 72.785 59.004 131.789 131.789 131.789s131.789-59.004 131.789-131.789c0-72.785-59.004-131.789-131.789-131.789-42.809 0-80.85 20.411-104.923 52.032l-0.236 0.323-220.877-112.64c3.604-11.018 5.763-23.709 5.938-36.879l0.001-0.088z" />
<glyph unicode="&#xe902;" glyph-name="tai-san-vat-tu" d="M983.040 960h-942.080c-22.622 0-40.96-18.338-40.96-40.96v0-942.080c0-22.622 18.338-40.96 40.96-40.96v0h942.080c22.622 0 40.96 18.338 40.96 40.96v0 942.080c0 22.622-18.338 40.96-40.96 40.96v0zM854.118 310.374l-327.68-174.694c-4.169-2.321-9.144-3.688-14.438-3.688s-10.27 1.367-14.592 3.767l0.154-0.078-327.68 174.694c-10.39 5.074-17.42 15.562-17.42 27.692 0 16.966 13.754 30.72 30.72 30.72 5.744 0 11.119-1.576 15.718-4.32l-0.141 0.078 313.242-167.117 313.242 167.117c4.458 2.666 9.833 4.242 15.577 4.242 16.966 0 30.72-13.754 30.72-30.72 0-12.13-7.030-22.618-17.239-27.612l-0.181-0.080zM854.118 430.285l-327.68-174.797c-4.169-2.321-9.144-3.688-14.438-3.688s-10.27 1.367-14.592 3.767l0.154-0.078-327.68 174.797c-10.782 4.926-18.139 15.617-18.139 28.026 0 16.966 13.754 30.72 30.72 30.72 6.039 0 11.672-1.743 16.422-4.753l-0.126 0.074 313.242-167.117 313.242 167.117c4.624 2.936 10.257 4.679 16.296 4.679 16.966 0 30.72-13.754 30.72-30.72 0-12.409-7.357-23.099-17.948-27.947l-0.192-0.079zM854.118 560.026l-327.68-174.694c-4.18-2.27-9.154-3.604-14.438-3.604s-10.258 1.334-14.601 3.685l0.162-0.080-327.68 174.694c-9.771 5.273-16.299 15.436-16.299 27.125 0 0.364 0.006 0.727 0.019 1.088l-0.001-0.052c0.461 11.994 7.73 22.184 18.034 26.853l0.193 0.078 327.68 146.227c3.674 1.677 7.969 2.655 12.493 2.655s8.819-0.978 12.686-2.733l-0.193 0.078 327.68-146.227c10.78-4.927 18.136-15.617 18.136-28.024 0-11.645-6.479-21.777-16.030-26.987l-0.161-0.080z" />
<glyph unicode="&#xe903;" glyph-name="vi-tri" d="M983.040 960h-942.080c-22.622 0-40.96-18.338-40.96-40.96v0-942.080c0-22.622 18.338-40.96 40.96-40.96v0h942.080c22.622 0 40.96 18.338 40.96 40.96v0 942.080c0 22.622-18.338 40.96-40.96 40.96v0zM547.123 108.954c-7.49-11.692-20.415-19.33-35.123-19.33s-27.633 7.638-35.024 19.165l-0.1 0.166c-68.096 107.827-211.456 347.034-211.456 450.56 0 136.182 110.397 246.579 246.579 246.579s246.579-110.397 246.579-246.579v0c0-103.526-143.258-342.733-211.456-450.56zM651.469 548.762c0-77.026-62.442-139.469-139.469-139.469s-139.469 62.442-139.469 139.469c0 77.026 62.442 139.469 139.469 139.469s139.469-62.442 139.469-139.469z" />
<glyph unicode="&#xe904;" glyph-name="tai-khoan" d="M983.040 960h-942.080c-22.622 0-40.96-18.338-40.96-40.96v0-942.080c0-22.622 18.338-40.96 40.96-40.96v0h942.080c22.622 0 40.96 18.338 40.96 40.96v0 942.080c0 22.622-18.338 40.96-40.96 40.96v0zM385.434 755.814c31.23 31.256 74.387 50.591 122.061 50.591s90.831-19.334 122.059-50.589l0.001-0.001c31.228-30.38 50.601-72.806 50.601-119.757 0-0.81-0.006-1.619-0.017-2.426l0.001 0.122c0.010-0.685 0.016-1.494 0.016-2.303 0-46.951-19.374-89.378-50.563-119.721l-0.038-0.037c-31.23-31.256-74.387-50.591-122.061-50.591s-90.831 19.334-122.059 50.589l-0.001 0.001c-31.228 30.38-50.601 72.806-50.601 119.757 0 0.81 0.006 1.619 0.017 2.426l-0.001-0.122c-0.010 0.685-0.016 1.494-0.016 2.303 0 46.951 19.374 89.378 50.563 119.721l0.038 0.037zM775.68 122.778c-22.588-20.64-52.787-33.283-85.939-33.283-1.828 0-3.646 0.038-5.456 0.115l0.259-0.009h-345.088c-1.573-0.070-3.418-0.109-5.273-0.109-33.128 0-63.303 12.646-85.96 33.374l0.097-0.087c-21.879 21.62-35.429 51.626-35.429 84.797 0 1.725 0.037 3.442 0.109 5.149l-0.008-0.244c0 14.336 0.512 28.57 1.434 42.291 1.279 17.186 3.35 32.725 6.249 47.969l-0.412-2.606c3.155 17.843 6.991 33.141 11.767 48.017l-0.708-2.551c5.362 16.334 11.706 30.385 19.329 43.606l-0.59-1.11c7.943 14.075 17.33 26.169 28.221 36.721l0.042 0.040c11.46 10.79 25.077 19.438 40.119 25.214l0.841 0.284c14.922 5.964 32.217 9.424 50.32 9.424 0.31 0 0.619-0.001 0.928-0.003h-0.048c10.818-1.156 20.469-5.41 28.249-11.847l-0.089 0.071 29.286-18.944c10.854-6.579 23.377-12.219 36.594-16.274l1.192-0.315c13.755-4.696 29.601-7.407 46.080-7.407s32.325 2.711 47.116 7.711l-1.036-0.304c14.409 4.37 26.932 10.010 38.542 17.012l-0.756-0.423 29.594 18.944c7.65 6.416 17.259 10.736 27.811 11.958l0.246 0.023c0.39 0.004 0.852 0.006 1.314 0.006 18.165 0 35.523-3.46 51.449-9.757l-0.948 0.33c15.868-6.11 29.477-14.751 41.030-25.562l-0.070 0.065c10.932-10.592 20.319-22.687 27.85-35.972l0.412-0.79c6.936-12.18 13.121-26.318 17.798-41.125l0.429-1.575c4.17-12.422 8.042-27.718 10.852-43.382l0.31-2.083c2.422-12.511 4.491-28.047 5.738-43.814l0.099-1.549c0.922-13.619 1.434-27.853 1.434-42.291 0.065-1.476 0.103-3.206 0.103-4.946 0-33.159-13.552-63.152-35.418-84.744l-0.012-0.012z" />
<glyph unicode="&#xe905;" glyph-name="thue-xuat" d="M848.896 523.264v406.63c0 0.001 0 0.002 0 0.003 0 16.483-13.246 29.872-29.674 30.103h-788.502c-0.183 0.004-0.398 0.006-0.614 0.006-16.627 0-30.106-13.479-30.106-30.106 0-0.002 0-0.004 0-0.007v0-807.629c0-0.002 0-0.004 0-0.007 0-26.745 21.45-48.48 48.085-48.94l0.043-0.001c26.546 0.685 47.817 22.314 47.923 48.937v298.711c2.373 57.049 49.197 102.4 106.614 102.4 0.067 0 0.133 0 0.2 0h-0.010zM558.182 808.141c-4.277 5.162-6.872 11.852-6.872 19.149 0 16.633 13.484 30.116 30.116 30.116 9.336 0 17.68-4.248 23.204-10.917l0.040-0.050 45.158-54.886 45.158 54.886c5.564 6.719 13.908 10.968 23.245 10.968 16.633 0 30.116-13.484 30.116-30.116 0-7.297-2.595-13.987-6.912-19.199l0.040 0.050-52.634-64 52.634-64c3.828-4.997 6.135-11.336 6.135-18.214 0-16.627-13.479-30.106-30.106-30.106-8.945 0-16.978 3.901-22.492 10.094l-0.026 0.030-45.158 54.784-45.158-54.784c-5.541-6.223-13.574-10.124-22.519-10.124-16.627 0-30.106 13.479-30.106 30.106 0 6.878 2.306 13.217 6.188 18.286l-0.053-0.072 52.634 64zM302.899 758.886c1.765 53.077 45.216 95.434 98.56 95.434s96.795-42.357 98.556-95.273l0.004-0.161v-97.792c0.033-0.525 0.051-1.14 0.051-1.758 0-16.683-13.525-30.208-30.208-30.208s-30.208 13.525-30.208 30.208c0 0.618 0.019 1.233 0.055 1.842l-0.004-0.084v23.347h-76.493v-23.347c0.033-0.525 0.051-1.14 0.051-1.758 0-16.683-13.525-30.208-30.208-30.208s-30.208 13.525-30.208 30.208c0 0.618 0.019 1.233 0.055 1.842l-0.004-0.084zM172.646 630.886c-16.525 0.339-29.825 13.675-30.105 30.181v136.117h-38.298c-16.627 0-30.106 13.479-30.106 30.106s13.479 30.106 30.106 30.106v0h136.806c16.627 0 30.106-13.479 30.106-30.106s-13.479-30.106-30.106-30.106h-38.298v-136.090c0-0.030 0-0.066 0-0.102 0-16.627-13.479-30.106-30.106-30.106 0 0 0 0 0 0v0zM203.059 463.053v0c-0.021 0-0.046 0-0.070 0-24.832 0-45.126-19.425-46.516-43.909l-0.006-0.123v-296.96c0-0.044 0-0.097 0-0.15 0-17.804-4.315-34.601-11.957-49.4l0.283 0.603h104.858v343.245c0 0 0 0 0 0 0 25.753-20.847 46.636-46.586 46.694h-0.006zM439.706 758.886c0.033 0.591 0.051 1.283 0.051 1.98 0 21.151-17.146 38.298-38.298 38.298s-38.298-17.146-38.298-38.298c0-0.696 0.019-1.388 0.055-2.076l-0.004 0.096v-13.926h76.493zM977.408 463.053h-678.195c6.783-13.61 10.752-29.645 10.752-46.608 0-0.030 0-0.061 0-0.091v0.005-450.56c0.174-16.494 13.585-29.798 30.104-29.798 0.001 0 0.001 0 0.002 0h653.824c16.627 0 30.106 13.479 30.106 30.106v0 450.56c0 0 0 0 0 0 0 25.753-20.847 46.636-46.586 46.694h-0.006zM434.688 308.736h233.472c15.91-0.956 28.45-14.092 28.45-30.157s-12.54-29.201-28.366-30.153l-0.084-0.004h-233.37c-15.91 0.956-28.45 14.092-28.45 30.157s12.54 29.201 28.366 30.153l0.084 0.004zM669.696 85.914c-1.434 0 12.8 0-234.906 0-16.627 0-30.106 13.479-30.106 30.106s13.479 30.106 30.106 30.106h233.472c16.242-0.493 29.221-13.777 29.221-30.093 0-15.811-12.188-28.775-27.682-30.009l-0.106-0.007zM922.010 85.914h-114.483c-16.627 0-30.106 13.479-30.106 30.106s13.479 30.106 30.106 30.106h114.074c16.627 0 30.106-13.479 30.106-30.106s-13.479-30.106-30.106-30.106v0zM922.010 248.525h-114.483c-15.91 0.956-28.45 14.092-28.45 30.157s12.54 29.201 28.366 30.153l0.084 0.004h114.074c15.91-0.956 28.45-14.092 28.45-30.157s-12.54-29.201-28.366-30.153l-0.084-0.004z" />
<glyph unicode="&#xe906;" glyph-name="hop-dong" horiz-adv-x="994" d="M577.229 146.022l-214.323-56.422c-1.946-0.526-4.18-0.828-6.484-0.828-14.252 0-25.805 11.553-25.805 25.805 0 2.036 0.236 4.018 0.682 5.918l-0.035-0.175 56.832 216.269c1.324 4.574 3.661 8.502 6.764 11.679l-0.005-0.005 399.36 398.029v136.090c0 0 0 0 0 0 0 42.796-34.635 77.502-77.403 77.619h-639.192c-42.868 0-77.619-34.751-77.619-77.619v0-868.762c0-42.868 34.751-77.619 77.619-77.619v0h639.181c42.868 0 77.619 34.751 77.619 77.619v0 344.166l-204.8-204.8c-3.313-3.32-7.511-5.757-12.21-6.925l-0.18-0.038zM959.693 728.986c-14.025 14.011-33.393 22.676-54.784 22.676s-40.759-8.665-54.785-22.676l0.001 0.001-14.438-14.746 121.037-120.525 14.336 14.234c13.998 14.069 22.651 33.467 22.651 54.886s-8.653 40.817-22.654 54.89l0.003-0.003zM449.638 329.83l121.037-122.163 349.491 349.491-121.446 121.037zM520.806 184.525l-94.208 95.13-33.997-129.126z" />
<glyph unicode="&#xe907;" glyph-name="nhom-tai-san" d="M983.040 960h-942.080c-22.622 0-40.96-18.338-40.96-40.96v0-942.080c0-22.622 18.338-40.96 40.96-40.96v0h942.080c22.622 0 40.96 18.338 40.96 40.96v0 942.080c0 22.622-18.338 40.96-40.96 40.96v0zM923.955 119.808c0-16.966-13.754-30.72-30.72-30.72v0h-168.346c-16.966 0-30.72 13.754-30.72 30.72v0 168.858c0 16.966 13.754 30.72 30.72 30.72v0h44.134v88.986h-226.304v-89.498h54.17c16.966 0 30.72-13.754 30.72-30.72v0-168.346c0-16.966-13.754-30.72-30.72-30.72v0h-169.267c-16.745 0.288-30.208 13.93-30.208 30.716 0 0.002 0 0.003 0 0.005v0 168.858c0 0.001 0 0.003 0 0.004 0 16.786 13.463 30.428 30.181 30.715h54.197v88.986h-226.816v-89.498h44.134c16.745-0.288 30.208-13.93 30.208-30.716 0-0.002 0-0.003 0-0.005v0-168.346c0-0.001 0-0.003 0-0.004 0-16.786-13.463-30.428-30.181-30.715h-168.885c-16.966 0-30.72 13.754-30.72 30.72v0 168.858c0 16.966 13.754 30.72 30.72 30.72v0h64.307v119.194c0.457 16.61 14.031 29.901 30.709 29.901 0.004 0 0.008 0 0.012 0h257.023v108.646h-54.682c-16.745 0.288-30.208 13.93-30.208 30.716 0 0.002 0 0.003 0 0.005v0 167.834c0 0.001 0 0.003 0 0.004 0 16.786 13.463 30.428 30.181 30.715h168.782c16.745-0.288 30.208-13.93 30.208-30.716 0-0.002 0-0.003 0-0.005v0-168.346c0-0.001 0-0.003 0-0.004 0-16.786-13.463-30.428-30.181-30.715h-53.685v-108.134h257.024c16.966 0 30.72-13.754 30.72-30.72v0-118.886h64.307c16.966 0 30.72-13.754 30.72-30.72v0z" />
<glyph unicode="&#xe908;" glyph-name="loai-tai-san" d="M209.613 750.387h223.949v-224.051h-223.949v224.051zM814.387 145.613v184.422l-184.422-184.422h184.422zM814.387 638.362c0-61.87-50.156-112.026-112.026-112.026s-112.026 50.156-112.026 112.026c0 61.87 50.156 112.026 112.026 112.026s112.026-50.156 112.026-112.026zM983.040 960h-942.080c-22.622 0-40.96-18.338-40.96-40.96v0-942.080c0-22.622 18.338-40.96 40.96-40.96v0h942.080c22.622 0 40.96 18.338 40.96 40.96v0 942.080c0 22.622-18.338 40.96-40.96 40.96v0zM481.28 137.421c5.688-5.155 9.245-12.57 9.245-20.816 0-15.496-12.562-28.058-28.058-28.058-8.246 0-15.662 3.558-20.795 9.222l-0.021 0.024-120.013 120.218-120.218-120.218c-5.155-5.688-12.57-9.245-20.816-9.245-15.496 0-28.058 12.562-28.058 28.058 0 8.246 3.558 15.662 9.222 20.795l0.024 0.021 120.218 120.218-120.218 120.115c-5.933 5.172-9.662 12.743-9.662 21.185 0 15.496 12.562 28.058 28.058 28.058 8.467 0 16.059-3.751 21.203-9.682l0.030-0.035 120.218-120.115 120.115 120.115c5.182 6.153 12.889 10.035 21.504 10.035 15.496 0 28.058-12.562 28.058-28.058 0-8.615-3.882-16.322-9.993-21.469l-0.042-0.035-120.115-120.115zM489.472 498.381c0-15.439-12.516-27.955-27.955-27.955v0h-279.962c-15.439 0-27.955 12.516-27.955 27.955v0 280.064c0 15.439 12.516 27.955 27.955 27.955v0h280.064c15.439 0 27.955-12.516 27.955-27.955v0zM870.4 117.555c0-15.439-12.516-27.955-27.955-27.955v0h-280.064c-15.386 0.144-27.804 12.65-27.804 28.056 0 7.71 3.11 14.695 8.144 19.766l279.857 279.857c5.070 5.033 12.054 8.143 19.764 8.143 15.406 0 27.913-12.417 28.056-27.79v-0.014zM702.362 470.426c-92.805 0-168.038 75.233-168.038 168.038s75.233 168.038 168.038 168.038c92.805 0 168.038-75.233 168.038-168.038 0-0.036 0-0.072 0-0.108v0.006c-0.117-92.738-75.293-167.878-168.033-167.936h-0.005z" />
<glyph unicode="&#xe909;" glyph-name="kho-hang" d="M983.040 960h-942.080c-22.622 0-40.96-18.338-40.96-40.96v0-942.080c0-22.622 18.338-40.96 40.96-40.96v0h942.080c22.622 0 40.96 18.338 40.96 40.96v0 942.080c0 22.622-18.338 40.96-40.96 40.96v0zM350.208 784.179c0.173 12.274 10.135 22.164 22.42 22.221h112.031v-89.6c-0.033-0.523-0.051-1.134-0.051-1.749 0-16.514 13.387-29.901 29.901-29.901s29.901 13.387 29.901 29.901c0 0.615-0.019 1.226-0.055 1.832l0.004-0.083v89.6h112.026c12.362-0.058 22.368-10.064 22.426-22.42v-283.552c-0.058-12.362-10.064-22.368-22.42-22.426h-283.756c-12.362 0.058-22.368 10.064-22.426 22.42v0.006zM484.659 112.128c0-0.030 0-0.066 0-0.102 0-12.385-10.040-22.426-22.426-22.426 0 0 0 0 0 0h-283.75c0 0 0 0 0 0-12.349 0-22.367 9.982-22.425 22.318v283.961c0.058 12.362 10.064 22.368 22.42 22.426h112.032v-89.6c-0.033-0.523-0.051-1.134-0.051-1.749 0-16.514 13.387-29.901 29.901-29.901s29.901 13.387 29.901 29.901c0 0.615-0.019 1.226-0.055 1.832l0.004-0.083v89.6h112.026c12.362-0.058 22.368-10.064 22.426-22.42v-0.006zM872.858 112.128c0-0.030 0-0.067 0-0.103 0-12.349-9.982-22.367-22.318-22.425h-283.756c0 0 0 0 0 0-12.349 0-22.367 9.982-22.425 22.318v283.961c0 12.385 10.040 22.426 22.426 22.426v0h112.026v-89.6c-0.033-0.523-0.051-1.134-0.051-1.749 0-16.514 13.387-29.901 29.901-29.901s29.901 13.387 29.901 29.901c0 0.615-0.019 1.226-0.055 1.832l0.004-0.083v89.6h112.026c12.341-0.058 22.323-10.076 22.323-22.425 0 0 0 0 0 0v0z" />
<glyph unicode="&#xe90a;" glyph-name="nhan-vien" d="M983.040 960h-942.080c-22.622 0-40.96-18.338-40.96-40.96v0-942.080c0-22.622 18.338-40.96 40.96-40.96v0h942.080c22.622 0 40.96 18.338 40.96 40.96v0 942.080c0 22.622-18.338 40.96-40.96 40.96v0zM691.2 749.568c0.116 0 0.253 0.001 0.39 0.001 58.081 0 105.165-47.084 105.165-105.165s-47.084-105.165-105.165-105.165c-16.284 0-31.703 3.701-45.463 10.308l0.632-0.273c-4.446 40.973-27.339 75.814-60.083 96.452l-0.538 0.316c0.865 57.36 47.567 103.526 105.051 103.526 0.004 0 0.008 0 0.012 0h-0.001zM517.12 641.024c0.061 0 0.133 0 0.205 0 58.081 0 105.165-47.084 105.165-105.165s-47.084-105.165-105.165-105.165c-58.081 0-105.165 47.084-105.165 105.165 0 0.036 0 0.072 0 0.108v-0.005c0 58.024 47.038 105.062 105.062 105.062 0.036 0 0.072 0 0.108 0h-0.006zM332.8 749.568c0.030 0 0.066 0 0.102 0 58.024 0 105.062-47.038 105.062-105.062 0 0 0 0 0 0v0c0-2.048 0-3.994 0-5.939-25.648-20.018-43.474-49.020-48.748-82.204l-0.097-0.74c-15.879-10.15-35.243-16.179-56.016-16.179-58.024 0-105.062 47.038-105.062 105.062 0 57.918 46.865 104.889 104.742 105.062h0.017zM312.934 255.898c-55.324 3.525-106.987 13.605-156.023 29.517l4.471-1.254-7.782 2.662v110.797c0.116 74.265 60.289 134.437 134.542 134.554h89.304c3.277 0 6.554 0 10.24 0 1.145-35.333 16.225-66.935 39.892-89.66l0.044-0.042c-66.645-20.384-114.278-81.351-114.278-153.443 0-0.055 0-0.111 0-0.166v0.009zM696.32 179.917h-0.717l-7.066-3.482c-3.482-1.843-60.826-30.003-159.744-30.003-65.553 0.532-128.412 11.281-187.315 30.728l4.326-1.237-7.885 2.355v110.797c0.058 74.324 60.324 134.554 134.656 134.554 0.036 0 0.072 0 0.108 0h89.185c74.268-0.058 134.451-60.278 134.451-134.554v0zM870.4 288.461h-0.717l-7.066-3.584c-3.277-1.638-53.658-26.419-141.107-29.594v33.587c0 0.101 0 0.221 0 0.34 0 72.016-47.594 132.915-113.043 152.961l-1.133 0.299c23.862 22.861 38.981 54.684 39.932 90.040l0.004 0.174h88.576c74.337-0.116 134.554-60.405 134.554-134.758 0-0.108 0-0.216 0-0.324v0.017z" />
<glyph unicode="&#xe90b;" glyph-name="tinh-khau-hao" d="M983.040 960h-942.080c-22.622 0-40.96-18.338-40.96-40.96v0-942.080c0-22.622 18.338-40.96 40.96-40.96v0h942.080c22.622 0 40.96 18.338 40.96 40.96v0 942.080c0 22.622-18.338 40.96-40.96 40.96v0zM312.013 804.659c6.568 6.516 15.614 10.543 25.6 10.543s19.032-4.027 25.602-10.545l426.904-426.801v6.656c0 20.020 16.229 36.25 36.25 36.25s36.25-16.229 36.25-36.25v-94.31c0.002-0.152 0.004-0.332 0.004-0.512 0-20.020-16.229-36.25-36.25-36.25-0.001 0-0.003 0-0.004 0h-94.31c-19.229 1.053-34.423 16.903-34.423 36.301s15.194 35.248 34.33 36.297l0.093 0.004h6.758l-426.803 427.315c-6.547 6.573-10.594 15.639-10.594 25.651s4.047 19.078 10.595 25.652l-0.001-0.001zM649.933 347.136v-100.966c0.004-0.153 0.006-0.333 0.006-0.513 0-12.668-10.27-22.938-22.938-22.938-0.074 0-0.148 0-0.222 0.001h-101.57c-12.668 0-22.938 10.27-22.938 22.938v0 249.037zM283.341 713.728l147.456-147.558v-320c0.004-0.152 0.006-0.332 0.006-0.512 0-12.668-10.27-22.938-22.938-22.938-0.038 0-0.076 0-0.114 0h-101.575c-12.668 0-22.938 10.27-22.938 22.938v0zM835.584 98.406h-644.198c0 0 0 0 0 0-20.020 0-36.25 16.229-36.25 36.25 0 0.036 0 0.072 0 0.108v-0.006 644.198c0 20.020 16.229 36.25 36.25 36.25s36.25-16.229 36.25-36.25v0-607.949h607.949c0.576 0.033 1.25 0.051 1.929 0.051 20.077 0 36.352-16.275 36.352-36.352s-16.275-36.352-36.352-36.352c-0.678 0-1.353 0.019-2.022 0.055l0.093-0.004z" />
<glyph unicode="&#xe90c;" glyph-name="thanh-ly-tai-san" d="M983.040 960h-942.080c-22.622 0-40.96-18.338-40.96-40.96v0-942.080c0-22.622 18.338-40.96 40.96-40.96v0h942.080c22.622 0 40.96 18.338 40.96 40.96v0 942.080c0 22.622-18.338 40.96-40.96 40.96v0zM378.88 175.206v-38.093c-3.127-25.555-24.696-45.153-50.842-45.153s-47.714 19.598-50.817 44.905l-0.025 0.247v30.72c-34.548 2.305-66.758 8.58-97.377 18.406l2.862-0.793c-24.392 8.065-41.681 30.658-41.681 57.289 0 5.109 0.636 10.070 1.834 14.807l-0.089-0.416 1.638 6.758c6.176 23.257 27.040 40.117 51.842 40.117 6.491 0 12.712-1.155 18.469-3.27l-0.372 0.119c27.934-10.525 60.218-16.703 93.92-16.896h0.083c45.978 0 73.421 16.486 73.421 44.237s-24.269 46.387-84.787 66.97c-75.162 25.088-160.768 66.56-160.768 165.478 0 78.95 55.296 139.571 144.794 159.642v31.949c-0.228 1.815-0.358 3.916-0.358 6.047 0 28.277 22.923 51.2 51.2 51.2s51.2-22.923 51.2-51.2c0-2.131-0.13-4.232-0.383-6.295l0.025 0.247v-24.986c25.897-1.513 50.122-5.421 73.455-11.534l-2.594 0.577c25.397-6.909 43.765-29.763 43.765-56.907 0-5.25-0.687-10.34-1.977-15.184l0.093 0.411-0.819-3.072c-6.25-23.949-27.688-41.338-53.188-41.338-5.759 0-11.31 0.887-16.526 2.532l0.389-0.106c-22.303 7.082-47.954 11.163-74.558 11.163-0.32 0-0.64-0.001-0.96-0.002h0.049c-41.779 0-64.819-13.926-64.819-39.117 0-21.606 24.474-38.195 97.075-65.434 104.243-36.762 148.787-87.245 148.787-168.55s-59.802-146.637-151.962-165.478zM872.653 517.325l-109.056-108.954c-9.048-9.169-21.612-14.849-35.503-14.849-0.082 0-0.165 0-0.247 0.001h0.013c-0.082 0-0.179-0.001-0.277-0.001-3.528 0-6.968 0.373-10.284 1.082l0.321-0.057c-10.1 2.092-18.828 6.984-25.596 13.82l-109.060 109.060c-9.172 9.172-14.845 21.844-14.845 35.84 0 27.993 22.693 50.685 50.685 50.685 13.996 0 26.668-5.673 35.84-14.845v0l22.835-22.835v186.266c-0.033 0.679-0.051 1.475-0.051 2.275 0 27.938 22.648 50.586 50.586 50.586s50.586-22.648 50.586-50.586c0-0.8-0.019-1.596-0.055-2.387l0.004 0.112v-186.47l22.835 22.835c9.172 9.172 21.844 14.845 35.84 14.845 27.993 0 50.685-22.693 50.685-50.685 0-13.996-5.673-26.668-14.845-35.84v0z" />
<glyph unicode="&#xe90d;" glyph-name="thu-hoi-phieu" horiz-adv-x="1200" d="M548.433 401.566c0 22.545 18.276 40.821 40.821 40.821v0h244.927v81.234h-385.76c0 0 0 0 0 0-25.609 0-46.376 20.731-46.434 46.327v386.583h-355.553c0 0 0 0 0 0-25.609 0-46.376-20.731-46.434-46.327v-927.77c0-25.645 20.789-46.434 46.434-46.434v0h742.13c25.645 0 46.434 20.789 46.434 46.434v0 40.821h-133.485c-68.267 0.058-123.587 55.413-123.587 123.688 0 0.108 0 0.215 0 0.323v-0.017 47.353l-32.759-33.167c-7.481-7.57-17.863-12.259-29.34-12.259-22.777 0-41.242 18.464-41.242 41.242 0 11.3 4.544 21.538 11.905 28.987l-0.004-0.004 102.053 103.176c7.376 7.521 17.629 12.198 28.974 12.246h0.009c0.040 0 0.087 0 0.134 0 11.265 0 21.464-4.563 28.849-11.941v0l104.911-103.482c7.592-7.451 12.298-17.821 12.298-29.289 0-22.658-18.368-41.026-41.026-41.026-11.19 0-21.333 4.48-28.734 11.743l0.006-0.006-33.677 32.759v-46.332c0-22.545 18.276-40.821 40.821-40.821v0h133.894v254.010h-244.927c-0.243-0.005-0.53-0.008-0.818-0.008-22.545 0-40.821 18.276-40.821 40.821 0 0.111 0 0.221 0.001 0.331v-0.017zM807.852 647.003l-313.099 312.997v-312.997h313.099zM1084.517 23.664c22.77 0 41.229 18.459 41.229 41.229s-18.459 41.229-41.229 41.229v0h-249.52v-82.459zM980.73 305.636c-7.441 7.366-17.681 11.916-28.983 11.916-22.757 0-41.205-18.448-41.205-41.205 0-11.455 4.674-21.818 12.219-29.286l104.608-103.485c7.375-7.317 17.533-11.839 28.747-11.839 0.083 0 0.166 0 0.249 0.001h-0.013c0.099-0.001 0.215-0.001 0.332-0.001 11.28 0 21.505 4.519 28.963 11.845l-0.006-0.006 102.053 103.278c7.344 7.432 11.88 17.652 11.88 28.932 0 22.737-18.432 41.169-41.169 41.169-11.457 0-21.822-4.68-29.285-12.233l-0.004-0.004-32.759-33.167v47.659c-0.116 68.28-55.494 123.586-123.79 123.586 0 0 0 0 0 0h-137.567v-82.357h137.567c22.545 0 40.821-18.276 40.821-40.821v0-46.23z" />
<glyph unicode="&#xe90e;" glyph-name="kiem-ke-tai-san" d="M983.040 960h-942.080c-22.622 0-40.96-18.338-40.96-40.96v0-942.080c0-22.622 18.338-40.96 40.96-40.96v0h942.080c22.622 0 40.96 18.338 40.96 40.96v0 942.080c0 22.622-18.338 40.96-40.96 40.96v0zM320 684.544c8.668 8.646 20.631 13.993 33.843 13.993s25.175-5.346 33.844-13.994l-0.001 0.001 62.874-62.464c2.187-2.19 5.211-3.545 8.55-3.545s6.363 1.355 8.55 3.545v0l168.653 169.165c8.661 8.661 20.627 14.018 33.843 14.018 26.433 0 47.862-21.428 47.862-47.862 0-13.217-5.357-25.182-14.018-33.843v0l-211.456-211.456c-8.657-8.671-20.624-14.035-33.843-14.035s-25.186 5.364-33.843 14.035l-104.859 104.756c-8.671 8.657-14.035 20.624-14.035 33.843s5.364 25.186 14.035 33.843l0.001 0.001zM675.84 99.84h-512c-28.277 0-51.2 22.923-51.2 51.2s22.923 51.2 51.2 51.2v0h512c28.277 0 51.2-22.923 51.2-51.2s-22.923-51.2-51.2-51.2v0zM870.4 294.4h-716.8c-28.277 0-51.2 22.923-51.2 51.2s22.923 51.2 51.2 51.2v0h716.8c28.277 0 51.2-22.923 51.2-51.2s-22.923-51.2-51.2-51.2v0z" />
<glyph unicode="&#xe90f;" glyph-name="nang-cap-tai-san" d="M983.040 960h-942.080c-22.622 0-40.96-18.338-40.96-40.96v0-942.080c0-22.622 18.338-40.96 40.96-40.96v0h942.080c22.622 0 40.96 18.338 40.96 40.96v0 942.080c0 22.622-18.338 40.96-40.96 40.96v0zM365.056 711.885l115.302 114.995c8.099 8.012 19.241 12.962 31.539 12.962s23.441-4.95 31.543-12.966l-0.004 0.004 115.302-114.995c7.265-7.914 11.718-18.512 11.718-30.15 0-24.658-19.989-44.646-44.646-44.646-11.638 0-22.236 4.453-30.183 11.748l0.033-0.030-39.117 39.219v-438.067c0-24.658-19.989-44.646-44.646-44.646s-44.646 19.989-44.646 44.646v0 438.067l-39.117-39.219c-7.914-7.265-18.512-11.718-30.15-11.718-24.658 0-44.646 19.989-44.646 44.646 0 11.638 4.453 22.236 11.748 30.183l-0.030-0.033zM743.936 96.666c0-22.622-18.338-40.96-40.96-40.96v0h-389.12c-22.622 0-40.96 18.338-40.96 40.96v0 10.24c0 22.622 18.338 40.96 40.96 40.96v0h389.12c22.622 0 40.96-18.338 40.96-40.96v0z" />
<glyph unicode="&#xe910;" glyph-name="thu-hoi-tai-san" d="M983.040 960h-942.080c-22.622 0-40.96-18.338-40.96-40.96v0-942.080c0-22.622 18.338-40.96 40.96-40.96v0h942.080c22.622 0 40.96 18.338 40.96 40.96v0 942.080c0 22.622-18.338 40.96-40.96 40.96v0zM844.595 511.693c0-22.622-18.338-40.96-40.96-40.96v0h-153.6c-22.622 0-40.96 18.338-40.96 40.96s18.338 40.96 40.96 40.96v0h45.261c-40.14 75.053-117.986 125.249-207.555 125.249-129.565 0-234.598-105.033-234.598-234.598s105.033-234.598 234.598-234.598c110.008 0 202.331 75.718 227.696 177.88l0.339 1.614c4.492 18.184 20.664 31.454 39.936 31.454 22.688 0 41.080-18.392 41.080-41.080 0-3.416-0.417-6.735-1.203-9.908l0.059 0.282c-34.802-140.027-159.425-242.163-307.903-242.163-174.978 0-316.826 141.848-316.826 316.826s141.848 316.826 316.826 316.826c116.823 0 218.879-63.229 273.812-157.332l0.811-1.503v65.741c0 22.622 18.338 40.96 40.96 40.96s40.96-18.338 40.96-40.96v0z" />
<glyph unicode="&#xe911;" glyph-name="chuyen-doi-tai-san" d="M983.040 960h-942.080c-22.622 0-40.96-18.338-40.96-40.96v0-942.080c0-22.622 18.338-40.96 40.96-40.96v0h942.080c22.622 0 40.96 18.338 40.96 40.96v0 942.080c0 22.622-18.338 40.96-40.96 40.96v0zM238.592 671.027h437.965l-39.117 39.117c-7.265 7.914-11.718 18.512-11.718 30.15 0 24.658 19.989 44.646 44.646 44.646 11.638 0 22.236-4.453 30.183-11.748l-0.033 0.030 115.302-115.302c8.012-8.099 12.962-19.241 12.962-31.539s-4.95-23.441-12.966-31.543l-115.298-115.298c-8.191-8.923-19.909-14.496-32.928-14.496-24.658 0-44.646 19.989-44.646 44.646 0 13.020 5.573 24.738 14.464 32.899l0.033 0.030 39.117 39.219h-437.965c-0.638-0.033-1.386-0.051-2.138-0.051-24.658 0-44.646 19.989-44.646 44.646s19.989 44.646 44.646 44.646c0.752 0 1.499-0.019 2.242-0.055l-0.105 0.004zM784.282 224.973h-438.067l39.219-39.117c8.923-8.191 14.496-19.909 14.496-32.928 0-24.658-19.989-44.646-44.646-44.646-13.020 0-24.738 5.573-32.899 14.464l-0.030 0.033-115.302 115.302c-8.037 8.088-13.004 19.233-13.004 31.539s4.967 23.452 13.006 31.542l115.3 115.3c8.191 8.923 19.909 14.496 32.928 14.496 24.658 0 44.646-19.989 44.646-44.646 0-13.020-5.573-24.738-14.464-32.899l-0.033-0.030-39.219-39.219h438.067c23.72-1.172 42.509-20.69 42.509-44.595s-18.788-43.423-42.404-44.591l-0.105-0.004z" />
<glyph unicode="&#xe912;" glyph-name="quan-ly-kho" d="M983.040 960h-942.080c-22.622 0-40.96-18.338-40.96-40.96v0-942.080c0-22.622 18.338-40.96 40.96-40.96v0h942.080c22.622 0 40.96 18.338 40.96 40.96v0 942.080c0 22.622-18.338 40.96-40.96 40.96v0zM350.208 784.179c0.173 12.274 10.135 22.164 22.42 22.221h112.031v-89.6c-0.033-0.523-0.051-1.134-0.051-1.749 0-16.514 13.387-29.901 29.901-29.901s29.901 13.387 29.901 29.901c0 0.615-0.019 1.226-0.055 1.832l0.004-0.083v89.6h112.026c12.362-0.058 22.368-10.064 22.426-22.42v-283.552c-0.058-12.362-10.064-22.368-22.42-22.426h-283.756c-12.362 0.058-22.368 10.064-22.426 22.42v0.006zM484.659 112.128c0-0.030 0-0.066 0-0.102 0-12.385-10.040-22.426-22.426-22.426 0 0 0 0 0 0h-283.75c0 0 0 0 0 0-12.349 0-22.367 9.982-22.425 22.318v283.961c0.058 12.362 10.064 22.368 22.42 22.426h112.032v-89.6c-0.033-0.523-0.051-1.134-0.051-1.749 0-16.514 13.387-29.901 29.901-29.901s29.901 13.387 29.901 29.901c0 0.615-0.019 1.226-0.055 1.832l0.004-0.083v89.6h112.026c12.362-0.058 22.368-10.064 22.426-22.42v-0.006zM872.858 112.128c0-0.030 0-0.067 0-0.103 0-12.349-9.982-22.367-22.318-22.425h-283.756c0 0 0 0 0 0-12.349 0-22.367 9.982-22.425 22.318v283.961c0 12.385 10.040 22.426 22.426 22.426v0h112.026v-89.6c-0.033-0.523-0.051-1.134-0.051-1.749 0-16.514 13.387-29.901 29.901-29.901s29.901 13.387 29.901 29.901c0 0.615-0.019 1.226-0.055 1.832l0.004-0.083v89.6h112.026c12.341-0.058 22.323-10.076 22.323-22.425 0 0 0 0 0 0v0z" />
<glyph unicode="&#xe913;" glyph-name="bao-cao-thong-ke" d="M983.040 960h-942.080c-22.622 0-40.96-18.338-40.96-40.96v0-942.080c0-22.622 18.338-40.96 40.96-40.96v0h942.080c22.622 0 40.96 18.338 40.96 40.96v0 942.080c0 22.622-18.338 40.96-40.96 40.96v0zM254.976 596.378c0.513 0.015 1.117 0.024 1.723 0.024 33.932 0 61.44-27.508 61.44-61.44 0-3.261-0.254-6.463-0.744-9.587l0.045 0.347 62.157-30.72c11.242 10.957 26.622 17.715 43.581 17.715 0.015 0 0.029 0 0.044 0h-0.002c9.817-0.044 19.077-2.384 27.285-6.51l-0.353 0.161 84.378 84.378c-3.964 7.855-6.304 17.114-6.349 26.917v0.015c0 0.063 0 0.137 0 0.212 0 34.724 28.149 62.874 62.874 62.874 13.060 0 25.19-3.982 35.242-10.798l-0.221 0.141 73.011 54.374c-1.89 5.554-3.010 11.954-3.072 18.607v0.030c0.011 34.772 28.202 62.956 62.976 62.956 34.781 0 62.976-28.195 62.976-62.976s-28.195-62.976-62.976-62.976c-13.014 0-25.105 3.947-35.143 10.71l0.224-0.142-73.216-54.886c2.072-5.928 3.269-12.762 3.269-19.876 0-34.272-27.783-62.054-62.054-62.054-0.393 0-0.786 0.004-1.178 0.011l0.059-0.001c-9.862 0.182-19.105 2.66-27.271 6.92l0.34-0.161-84.378-84.378c3.964-7.855 6.304-17.114 6.349-26.917v-0.015c0.033-0.758 0.051-1.647 0.051-2.541 0-34.837-28.241-63.078-63.078-63.078s-63.078 28.241-63.078 63.078c0 0.894 0.019 1.783 0.055 2.667l-0.004-0.126c0.13 2.788 0.423 5.395 0.873 7.947l-0.054-0.37-62.157 30.72c-11.255-10.652-26.489-17.202-43.252-17.202-34.781 0-62.976 28.195-62.976 62.976 0 34.65 27.984 62.765 62.585 62.975h0.020zM844.39 89.6h-674.816c-11.594 0-20.992 9.398-20.992 20.992s9.398 20.992 20.992 20.992v0h22.426v233.779c0 0.002 0 0.004 0 0.006 0 11.311 9.169 20.48 20.48 20.48 0.18 0 0.36-0.002 0.538-0.007l-0.026 0.001h83.968c0.152 0.004 0.332 0.006 0.512 0.006 11.311 0 20.48-9.169 20.48-20.48 0-0.002 0-0.005 0-0.007v0-233.779h41.984v149.811c0.286 11.371 9.572 20.48 20.986 20.48 0.038 0 0.076 0 0.115 0h83.962c0.002 0 0.004 0 0.006 0 11.414 0 20.7-9.109 20.985-20.454l0.001-0.026v-149.811h41.984v317.44c0.278 11.197 9.283 20.202 20.454 20.479l0.026 0.001h84.070c11.197-0.278 20.202-9.283 20.479-20.454l0.001-0.026v-317.44h43.315v443.802c-0.004 0.152-0.006 0.332-0.006 0.512 0 11.311 9.169 20.48 20.48 20.48 0.002 0 0.005 0 0.007 0h83.968c11.371-0.286 20.48-9.572 20.48-20.986 0-0.002 0-0.004 0-0.007v0-443.802h22.426c11.594 0 20.992-9.398 20.992-20.992s-9.398-20.992-20.992-20.992v0z" />
<glyph unicode="&#xe914;" glyph-name="quan-ly-tai-san" horiz-adv-x="1029" d="M41.166 960h380.784c22.735 0 41.166-18.431 41.166-41.166v-174.955c0-22.735-18.431-41.166-41.166-41.166h-380.784c-22.735 0-41.166 18.431-41.166 41.166v174.955c0 22.735 18.431 41.166 41.166 41.166zM607.196 960h380.784c22.735 0 41.166-18.431 41.166-41.166v-586.613c0-22.735-18.431-41.166-41.166-41.166h-380.784c-22.735 0-41.166 18.431-41.166 41.166v586.613c0 22.735 18.431 41.166 41.166 41.166zM41.166 604.945h380.784c22.735 0 41.166-18.431 41.166-41.166v-586.613c0-22.735-18.431-41.166-41.166-41.166h-380.784c-22.735 0-41.166 18.431-41.166 41.166v586.613c0 22.735 18.431 41.166 41.166 41.166zM607.196 193.286h380.784c22.735 0 41.166-18.431 41.166-41.166v-174.955c0-22.735-18.431-41.166-41.166-41.166h-380.784c-22.735 0-41.166 18.431-41.166 41.166v174.955c0 22.735 18.431 41.166 41.166 41.166z" />
<glyph unicode="&#xe915;" glyph-name="danh-muc-he-thong" d="M983.040 960h-942.080c-22.622 0-40.96-18.338-40.96-40.96v0-942.080c0-22.622 18.338-40.96 40.96-40.96v0h942.080c22.622 0 40.96 18.338 40.96 40.96v0 942.080c0 22.622-18.338 40.96-40.96 40.96v0zM201.626 178.176c-0.030 0-0.066 0-0.102 0-26.58 0-48.128 21.548-48.128 48.128s21.548 48.128 48.128 48.128c26.58 0 48.128-21.548 48.128-48.128v0c0-0.030 0-0.066 0-0.102 0-26.524-21.502-48.026-48.026-48.026 0 0 0 0 0 0v0zM201.626 399.974c-26.524 0-48.026 21.502-48.026 48.026s21.502 48.026 48.026 48.026c26.524 0 48.026-21.502 48.026-48.026v0c0-26.524-21.502-48.026-48.026-48.026v0zM201.626 621.67c-0.030 0-0.066 0-0.102 0-26.58 0-48.128 21.548-48.128 48.128s21.548 48.128 48.128 48.128c26.58 0 48.128-21.548 48.128-48.128 0-0.036 0-0.072 0-0.108v0.006c-0.232-26.347-21.644-47.616-48.024-47.616-0.001 0-0.001 0-0.002 0v0zM834.662 187.699h-479.334c-19.794 0-35.84 16.046-35.84 35.84s16.046 35.84 35.84 35.84v0h479.334c19.794 0 35.84-16.046 35.84-35.84s-16.046-35.84-35.84-35.84v0zM834.662 412.262h-479.334c-19.794 0-35.84 16.046-35.84 35.84s16.046 35.84 35.84 35.84v0h479.334c19.794 0 35.84-16.046 35.84-35.84s-16.046-35.84-35.84-35.84v0zM834.662 636.723h-479.334c-19.794 0-35.84 16.046-35.84 35.84s16.046 35.84 35.84 35.84v0h479.334c19.794 0 35.84-16.046 35.84-35.84s-16.046-35.84-35.84-35.84v0z" />
<glyph unicode="&#xe916;" glyph-name="xuat-tai-san" horiz-adv-x="1139" d="M543.027 233.882c-24.775 1.198-44.408 21.577-44.408 46.541s19.633 45.342 44.301 46.537l0.107 0.004h294.81v198.656h-387.891c-25.52 0.231-46.125 20.945-46.182 46.484v387.896h-357.171c-25.732 0-46.592-20.86-46.592-46.592v0-930.816c0-25.732 20.86-46.592 46.592-46.592v0h744.653c25.732 0 46.592 20.86 46.592 46.592v0 251.29h-294.81zM1138.586 284.979v2.15c0.019 0.352 0.030 0.763 0.030 1.178s-0.011 0.826-0.033 1.235l0.002-0.057c0.023 0.352 0.036 0.763 0.036 1.178s-0.013 0.826-0.039 1.233l0.003-0.056c0 0.717 0 1.434 0 2.048s0 1.536-0.819 2.253-0.512 1.434-0.717 2.15c-0.348 0.771-0.69 1.409-1.068 2.023l0.044-0.077-0.922 2.15c-0.369 0.521-0.743 1.124-1.080 1.749l-0.047 0.095-1.229 2.048-1.536 1.946c-0.416 0.666-0.821 1.234-1.256 1.776l0.027-0.035c-0.935 1.159-1.906 2.195-2.949 3.156l-0.020 0.018-118.17 116.531c-8.421 8.434-20.062 13.652-32.922 13.652-25.693 0-46.522-20.829-46.522-46.522 0-12.834 5.197-24.454 13.601-32.871l-0.001 0.001 36.864-36.966h-142.029v-93.082h142.029l-36.864-36.864c-7.694-8.286-12.415-19.425-12.415-31.666 0-25.732 20.86-46.592 46.592-46.592 12.242 0 23.381 4.721 31.696 12.442l-0.029-0.027 116.326 116.326c1.024 1.024 2.048 2.15 2.97 3.277l1.331 1.741 1.434 1.946 1.229 2.048c0.384 0.72 0.757 1.322 1.164 1.9l-0.038-0.056c0.352 0.864 0.696 1.571 1.077 2.254l-0.053-0.104 0.922 2.048c0 0.614 0 1.331 0.717 2.048s0 1.434 0.819 2.253 0 1.331 0 2.048c0.023 0.352 0.036 0.763 0.036 1.178s-0.013 0.826-0.039 1.233l0.003-0.056c0.024 0.367 0.037 0.797 0.037 1.229s-0.013 0.861-0.040 1.287l0.003-0.058v2.048c0 1.434 0 2.97 0 4.506v0c2.048 1.741 1.946 3.277 1.843 4.71zM810.598 618.701l-314.163 314.061v-314.061h314.163z" />
<glyph unicode="&#xe917;" glyph-name="nhap-tai-san" d="M562.278 234.189l36.864-36.864c8.434-8.421 13.652-20.062 13.652-32.922 0-25.693-20.829-46.522-46.522-46.522-12.834 0-24.454 5.197-32.871 13.601l0.001-0.001-116.429 116.019-2.867 3.072c-0.189 0.395-0.429 0.734-0.717 1.024v0l-2.15 3.072-0.614 0.922c-0.614 1.024-1.229 1.946-1.741 2.97v0.717c-0.511 0.92-1.061 2.065-1.55 3.242l-0.088 0.24s0 0 0 0-0.922 2.56-1.331 3.789c0 1.331-0.717 2.56-1.024 3.891s0 0.819 0 1.229 0 2.15 0 3.277 0 3.174 0 4.71 0 3.072 0 4.608 0 2.253 0 3.379 0 0.819 0 1.126 0.614 2.662 1.024 3.891c0 1.331 0.819 2.56 1.331 3.891s0 0 0 0c0.578 1.416 1.127 2.561 1.733 3.671l-0.095-0.19v0.614c0.593 1.165 1.171 2.136 1.804 3.068l-0.063-0.098 0.614 1.024 1.843 2.56 0.819 1.024c0.819 1.024 1.741 1.946 2.56 2.867v0l116.941 118.682c8.416 8.404 20.036 13.6 32.87 13.6 25.693 0 46.522-20.829 46.522-46.522 0-12.859-5.217-24.5-13.651-32.921l-0.001-0.001-36.864-36.966h275.558v198.656h-387.891c0 0 0 0 0 0-25.696 0-46.534 20.802-46.592 46.484v387.897h-356.864c-25.675 0-46.49-20.814-46.49-46.49v0-930.918c0 0 0 0 0 0 0-25.696 20.802-46.534 46.484-46.592h744.761c25.732 0 46.592 20.86 46.592 46.592v0 251.597h-275.558zM810.598 618.701l-314.163 314.061v-314.061h314.163zM977.408 326.963h-139.571v-92.774h139.571c0.652-0.033 1.416-0.051 2.184-0.051 25.732 0 46.592 20.86 46.592 46.592s-20.86 46.592-46.592 46.592c-0.768 0-1.532-0.019-2.291-0.055l0.107 0.004z" />
</font>
</defs>
</svg>
